<svg width="75" height="82" viewBox="0 0 75 82" fill="none" xmlns="http://www.w3.org/2000/svg">
<path d="M25.7812 71.75C28.3701 71.75 30.4688 69.4555 30.4688 66.625C30.4688 63.7945 28.3701 61.5 25.7812 61.5C23.1924 61.5 21.0938 63.7945 21.0938 66.625C21.0938 69.4555 23.1924 71.75 25.7812 71.75Z" fill="#174848"/>
<path d="M58.5938 71.75C61.1826 71.75 63.2812 69.4555 63.2812 66.625C63.2812 63.7945 61.1826 61.5 58.5938 61.5C56.0049 61.5 53.9062 63.7945 53.9062 66.625C53.9062 69.4555 56.0049 71.75 58.5938 71.75Z" fill="#174848"/>
<path d="M66.9141 19.3437C66.5848 18.9033 66.17 18.5487 65.6997 18.3054C65.2294 18.0622 64.7155 17.9365 64.1953 17.9375H19.6128L18.7148 12.3673C18.6191 11.7739 18.3352 11.2365 17.913 10.8493C17.4908 10.462 16.9573 10.2499 16.4062 10.25H7.03125C6.40965 10.25 5.81351 10.52 5.37397 11.0005C4.93443 11.4811 4.6875 12.1329 4.6875 12.8125C4.6875 13.4921 4.93443 14.1439 5.37397 14.6245C5.81351 15.105 6.40965 15.375 7.03125 15.375H14.4404L21.1289 56.8202C21.2247 57.4136 21.5086 57.951 21.9308 58.3382C22.3529 58.7255 22.8864 58.9376 23.4375 58.9375H60.9375C61.5591 58.9375 62.1552 58.6675 62.5948 58.187C63.0343 57.7064 63.2812 57.0546 63.2812 56.375C63.2812 55.6954 63.0343 55.0436 62.5948 54.563C62.1552 54.0825 61.5591 53.8125 60.9375 53.8125H25.4033L24.5771 48.6875H59.9766C60.7894 48.6864 61.5768 48.3782 62.2057 47.8153C62.8346 47.2523 63.2663 46.469 63.4277 45.5981L67.6465 22.5356C67.7481 21.9774 67.7352 21.4016 67.6085 20.8496C67.4818 20.2976 67.2446 19.7832 66.9141 19.3437Z" fill="#174848"/>
</svg>
