<svg width="82" height="82" viewBox="0 0 82 82" fill="none" xmlns="http://www.w3.org/2000/svg">
<g clip-path="url(#clip0_27_2237)">
<path d="M72.2766 0.9212C72.2766 0.9212 9.76702 0.901982 9.78496 0.9212C4.02318 0.9212 0.78418 3.90011 0.78418 9.98476V72.7224C0.78418 78.415 3.69646 81.3952 9.45312 81.3952H72.456C78.2127 81.3952 81.1288 78.5637 81.1288 72.7224V9.98476C81.1301 4.04745 78.214 0.9212 72.2766 0.9212ZM39.3972 29.9479C39.3972 31.9159 37.6047 34.0236 35.278 34.0236V67.2528C35.278 71.9704 28.8487 71.9704 28.8487 67.2528V34.0236C26.5847 34.0236 24.6129 32.2798 24.6129 29.6673V11.38C24.6129 9.78873 26.9127 9.72723 26.9127 11.4428V24.96H28.8384V11.3173C28.8384 9.85536 31.0537 9.76182 31.0537 11.38V24.96H33.0435V11.3365C33.0435 9.80795 35.1934 9.74645 35.1934 11.3967V24.96H37.1512V11.3365C37.1512 9.8246 39.3972 9.76439 39.3972 11.3967V29.9479ZM56.548 67.2374C56.548 71.8512 50.1059 71.782 50.1059 67.2374V46.7605H46.676V15.6299C46.676 8.3832 56.5493 8.3832 56.5493 15.6299V67.2374H56.548Z" fill="#174848"/>
</g>
<defs>
<clipPath id="clip0_27_2237">
<rect width="82" height="82" fill="white"/>
</clipPath>
</defs>
</svg>
