<svg width="73" height="82" viewBox="0 0 73 82" fill="none" xmlns="http://www.w3.org/2000/svg">
<path d="M59.8177 25.625C59.9155 24.7762 59.9644 23.9273 59.9644 23.0625C59.9644 10.3301 49.4543 0 36.5001 0C23.5458 0 13.0358 10.3301 13.0358 23.0625C13.0358 23.9273 13.0847 24.7762 13.1824 25.625H13.0358C8.7177 25.625 5.21436 29.0684 5.21436 33.3125C5.21436 37.5566 8.7177 41 13.0358 41H59.9644C64.2824 41 67.7858 37.5566 67.7858 33.3125C67.7858 29.0684 64.2824 25.625 59.9644 25.625H59.8177ZM15.6429 46.125L32.7197 79.7098C33.4367 81.1191 34.8869 82 36.5001 82C38.1132 82 39.5635 81.1191 40.2804 79.7098L57.3572 46.125H15.6429Z" fill="#174848"/>
</svg>
