<svg width="76" height="78" viewBox="0 0 76 78" fill="none" xmlns="http://www.w3.org/2000/svg">
<path d="M15.618 13.8572C12.9185 13.8572 10.3295 14.9521 8.42069 16.9012C6.51184 18.8502 5.43945 21.4937 5.43945 24.2501V26.3287H70.5714V24.2501C70.5714 21.4937 69.4991 18.8502 67.5902 16.9012C65.6814 14.9521 63.0924 13.8572 60.3929 13.8572H15.618ZM5.43945 53.3502V30.4858H70.5714V53.3502C70.5714 56.1066 69.4991 58.7501 67.5902 60.6991C65.6814 62.6482 63.0924 63.7432 60.3929 63.7432H15.6207C12.9212 63.7432 10.3323 62.6482 8.4234 60.6991C6.51455 58.7501 5.44217 56.1066 5.44217 53.3502M49.5357 45.7288C48.9958 45.7288 48.478 45.9478 48.0963 46.3376C47.7145 46.7274 47.5 47.2561 47.5 47.8074C47.5 48.3586 47.7145 48.8873 48.0963 49.2771C48.478 49.667 48.9958 49.8859 49.5357 49.8859H59.0357C59.5756 49.8859 60.0934 49.667 60.4752 49.2771C60.857 48.8873 61.0715 48.3586 61.0715 47.8074C61.0715 47.2561 60.857 46.7274 60.4752 46.3376C60.0934 45.9478 59.5756 45.7288 59.0357 45.7288H49.5357Z" fill="#236767"/>
</svg>
