<svg width="82" height="82" viewBox="0 0 82 82" fill="none" xmlns="http://www.w3.org/2000/svg">
<g clip-path="url(#clip0_27_2410)">
<path fill-rule="evenodd" clip-rule="evenodd" d="M39.2916 10.25C40.1285 10.2501 40.9362 10.5573 41.5616 11.1134C42.1869 11.6695 42.5865 12.4358 42.6844 13.2669L42.7083 13.6667V38.2325L66.42 31.7682C67.2939 31.5307 68.2264 31.6499 69.0125 32.0997C69.7986 32.5494 70.374 33.2929 70.6122 34.1667C72.3985 40.7153 72.0868 47.6592 69.7209 54.0215C67.355 60.3837 63.054 65.8442 57.423 69.6346C51.792 73.4251 45.1143 75.3547 38.3294 75.1522C31.5445 74.9497 24.9939 72.6251 19.599 68.5055C14.2041 64.3859 10.2365 58.6787 8.25432 52.1866C6.27216 45.6945 6.3752 38.7444 8.54894 32.314C10.7227 25.8835 14.8577 20.2964 20.3724 16.3385C25.887 12.3807 32.5037 10.2513 39.2916 10.25ZM42.7083 47.8333C40.4429 47.8333 38.2703 48.7332 36.6684 50.3351C35.0665 51.937 34.1666 54.1096 34.1666 56.375C34.1666 58.6404 35.0665 60.813 36.6684 62.4149C38.2703 64.0167 40.4429 64.9167 42.7083 64.9167C44.9737 64.9167 47.1463 64.0167 48.7482 62.4149C50.35 60.813 51.2499 58.6404 51.2499 56.375C51.2499 54.1096 50.35 51.937 48.7482 50.3351C47.1463 48.7332 44.9737 47.8333 42.7083 47.8333ZM42.7083 54.6667C43.1614 54.6667 43.5959 54.8466 43.9163 55.167C44.2366 55.4874 44.4166 55.9219 44.4166 56.375C44.4166 56.8281 44.2366 57.2626 43.9163 57.583C43.5959 57.9033 43.1614 58.0833 42.7083 58.0833C42.2552 58.0833 41.8207 57.9033 41.5003 57.583C41.1799 57.2626 40.9999 56.8281 40.9999 56.375C40.9999 55.9219 41.1799 55.4874 41.5003 55.167C41.8207 54.8466 42.2552 54.6667 42.7083 54.6667ZM58.0833 44.4167C57.2464 44.4168 56.4387 44.724 55.8133 45.2801C55.188 45.8362 54.7884 46.6025 54.6905 47.4336L54.6666 47.8675C54.6676 48.7383 55.001 49.5759 55.5988 50.2092C56.1967 50.8424 57.0137 51.2235 57.883 51.2745C58.7524 51.3255 59.6084 51.0427 60.2762 50.4838C60.944 49.9248 61.3732 49.132 61.476 48.2672L61.4999 47.8333C61.4999 46.9272 61.14 46.0581 60.4992 45.4174C59.8585 44.7766 58.9894 44.4167 58.0833 44.4167ZM25.625 41C24.2657 41 22.9622 41.5399 22.001 42.5011C21.0399 43.4622 20.5 44.7658 20.5 46.125C20.5 47.4842 21.0399 48.7878 22.001 49.7489C22.9622 50.71 24.2657 51.25 25.625 51.25C26.9842 51.25 28.2877 50.71 29.2489 49.7489C30.21 48.7878 30.75 47.4842 30.75 46.125C30.75 44.7658 30.21 43.4622 29.2489 42.5011C28.2877 41.5399 26.9842 41 25.625 41ZM52.2544 6.98366C59.4764 9.21205 65.6968 13.8861 69.8469 20.2027C70.3328 20.9428 70.5125 21.8427 70.3481 22.7127C70.1837 23.5826 69.6879 24.3548 68.9654 24.8665L68.6203 25.0817L49.4596 35.4616C48.9324 35.7472 48.3392 35.8891 47.7398 35.8729C47.1404 35.8567 46.5558 35.683 46.0447 35.3693C45.5336 35.0556 45.1141 34.613 44.8284 34.0858C44.5426 33.5586 44.4006 32.9655 44.4166 32.3661L44.4576 31.939L47.8743 9.73066C47.9488 9.2458 48.1269 8.78269 48.3963 8.37279C48.6658 7.96289 49.0204 7.61583 49.436 7.3552C49.8516 7.09457 50.3184 6.92649 50.8047 6.86238C51.2911 6.79826 51.7855 6.83963 52.2544 6.98366ZM27.3333 27.3333C26.4964 27.3334 25.6887 27.6407 25.0633 28.1968C24.438 28.7529 24.0384 29.5191 23.9405 30.3502L23.9166 30.7842C23.9176 31.655 24.251 32.4926 24.8488 33.1258C25.4467 33.7591 26.2637 34.1401 27.133 34.1912C28.0024 34.2422 28.8584 33.9594 29.5262 33.4004C30.194 32.8415 30.6232 32.0487 30.726 31.1839L30.75 30.75C30.75 29.8438 30.39 28.9748 29.7492 28.334C29.1085 27.6933 28.2394 27.3333 27.3333 27.3333ZM53.9765 14.9923L52.2579 26.1751L61.8484 20.9783C59.6362 18.4927 56.9629 16.4598 53.9765 14.9923Z" fill="#174848"/>
</g>
<defs>
<clipPath id="clip0_27_2410">
<rect width="82" height="82" fill="white"/>
</clipPath>
</defs>
</svg>
