<svg width="90" height="82" viewBox="0 0 90 82" fill="none" xmlns="http://www.w3.org/2000/svg">
<g clip-path="url(#clip0_27_2220)">
<path d="M13.5 15.8207C13.5 12.9859 15.5109 10.6957 18 10.6957H72C81.9422 10.6957 90 19.8726 90 31.1957C90 42.5187 81.9422 51.6957 72 51.6957H67.5C67.5 60.184 61.4531 67.0707 54 67.0707H27C19.5469 67.0707 13.5 60.184 13.5 51.6957V15.8207ZM67.5 41.4457H72C76.9641 41.4457 81 36.8492 81 31.1957C81 25.5422 76.9641 20.9457 72 20.9457H67.5V41.4457ZM4.5 72.1957H76.5C78.9891 72.1957 81 74.4859 81 77.3207C81 80.1554 78.9891 82.4457 76.5 82.4457H4.5C2.01094 82.4457 0 80.1554 0 77.3207C0 74.4859 2.01094 72.1957 4.5 72.1957Z" fill="#174848"/>
</g>
<defs>
<clipPath id="clip0_27_2220">
<rect width="90" height="82" fill="white"/>
</clipPath>
</defs>
</svg>

