<svg width="74" height="82" viewBox="0 0 74 82" fill="none" xmlns="http://www.w3.org/2000/svg">
<path fill-rule="evenodd" clip-rule="evenodd" d="M21.9387 19.7298V15.5696C21.9387 11.4403 23.5259 7.48011 26.351 4.56024C29.1762 1.64037 33.0079 0 37.0032 0C40.9986 0 44.8303 1.64037 47.6554 4.56024C50.4805 7.48011 52.0677 11.4403 52.0677 15.5696V19.7298C62.8498 19.7796 68.5784 20.228 71.7921 24.2803C75.4076 28.8391 74.0779 35.7312 71.4105 49.5197L69.0002 61.9754C67.1442 71.5621 66.2162 76.3534 62.882 79.1767C59.5517 82 54.8235 82 45.367 82H28.6394C19.1789 82 14.4507 82 11.1164 79.1767C7.78616 76.3534 6.85819 71.5621 5.00224 61.9754L2.59193 49.5197C-0.0754908 35.7354 -1.4092 28.8432 2.20628 24.2803C5.42003 20.228 11.1526 19.7796 21.9347 19.7298M27.9645 15.5696C27.9645 13.092 28.9168 10.7159 30.6119 8.96399C32.307 7.21207 34.606 6.22785 37.0032 6.22785C39.4004 6.22785 41.6994 7.21207 43.3945 8.96399C45.0896 10.7159 46.0419 13.092 46.0419 15.5696V19.7215H27.9645V15.5696ZM49.0548 36.3291C50.1202 36.3291 51.142 35.8917 51.8954 35.1131C52.6487 34.3344 53.072 33.2784 53.072 32.1772C53.072 31.0761 52.6487 30.02 51.8954 29.2414C51.142 28.4627 50.1202 28.0253 49.0548 28.0253C47.9894 28.0253 46.9676 28.4627 46.2142 29.2414C45.4608 30.02 45.0376 31.0761 45.0376 32.1772C45.0376 33.2784 45.4608 34.3344 46.2142 35.1131C46.9676 35.8917 47.9894 36.3291 49.0548 36.3291ZM28.9688 32.1772C28.9688 33.2784 28.5456 34.3344 27.7922 35.1131C27.0388 35.8917 26.0171 36.3291 24.9516 36.3291C23.8862 36.3291 22.8644 35.8917 22.111 35.1131C21.3577 34.3344 20.9344 33.2784 20.9344 32.1772C20.9344 31.0761 21.3577 30.02 22.111 29.2414C22.8644 28.4627 23.8862 28.0253 24.9516 28.0253C26.0171 28.0253 27.0388 28.4627 27.7922 29.2414C28.5456 30.02 28.9688 31.0761 28.9688 32.1772Z" fill="#174848"/>
</svg>
