<svg width="66" height="68" viewBox="0 0 66 68" fill="none" xmlns="http://www.w3.org/2000/svg">
<path d="M43.4218 43.8035C41.087 42.8495 40.1548 40.2276 40.1548 40.2276C40.1548 40.2276 39.1029 40.8215 39.1029 39.1536C39.1029 37.4857 40.1548 40.2276 41.2067 33.7877C41.2067 33.7877 44.121 32.9516 43.5373 26.0378H42.836C42.836 26.0378 44.5892 18.646 42.836 16.1399C41.0829 13.6381 40.3858 11.9702 36.531 10.7761C32.6762 9.58206 34.0807 9.82003 31.2778 9.94218C28.4728 10.0643 26.138 11.6122 26.138 12.4482C26.138 12.4482 24.3849 12.5662 23.6878 13.2822C22.9865 13.9982 21.8192 17.334 21.8192 18.1679C21.8192 19.0019 22.4028 24.6121 22.9865 25.802L22.2915 26.042C21.7057 32.9558 24.6221 33.7919 24.6221 33.7919C25.674 40.2318 26.7258 37.4899 26.7258 39.1578C26.7258 40.8257 25.674 40.2318 25.674 40.2318C25.674 40.2318 24.7417 42.8537 22.407 43.8077C20.0722 44.7596 7.11147 49.8854 6.05753 50.9594C5.00153 52.0334 5.12116 57.0414 5.12116 57.0414H60.6993C60.6993 57.0414 60.8231 52.0356 59.7671 50.9594C58.7152 49.8854 45.7524 44.7596 43.4177 43.8077L43.4218 43.8035ZM17.7024 43.4412C17.4962 43.0622 17.3972 42.7884 17.3972 42.7884C17.3972 42.7884 16.5062 43.2938 16.5062 41.8786C16.5062 40.4635 17.3972 42.7884 18.2882 37.3298C18.2882 37.3298 20.7632 36.6243 20.2682 30.7635H19.67C19.67 30.7635 19.967 29.521 20.1609 27.9542C20.1522 27.2542 20.1777 26.5541 20.2372 25.8567L20.3156 24.9596C20.2743 23.9235 20.0949 22.98 19.6721 22.3777C18.1871 20.257 17.5931 18.8397 14.3302 17.8289C11.0632 16.818 12.2471 17.0202 9.87522 17.1234C7.49922 17.2287 5.51922 18.5386 5.51922 19.2504C5.51922 19.2504 4.03422 19.3494 3.44022 19.9559C2.88334 20.5245 1.98616 23.0348 1.87891 23.9256V24.5152C1.97791 25.8925 2.41516 29.6748 2.84828 30.5656L2.25841 30.7677C1.76341 36.6264 4.23841 37.334 4.23841 37.334C5.12528 42.7884 6.01834 40.4677 6.01834 41.8829C6.01834 43.298 5.12734 42.7884 5.12734 42.7884C5.12734 42.7884 4.33741 45.0165 2.35741 45.8209L1.87891 46.0147V57.0371H3.06484C3.00297 54.3458 3.22366 50.8731 4.60347 49.4684C5.33978 48.7208 7.74672 47.4888 17.7065 43.4412H17.7024ZM63.758 24.3699C63.6755 23.5739 63.4961 22.8642 63.1558 22.3777C61.6749 20.2549 61.0788 18.8397 57.8139 17.8289C54.549 16.818 55.737 17.0202 53.3589 17.1234C50.987 17.2287 49.007 18.5386 49.007 19.2504C49.007 19.2504 47.522 19.3494 46.928 19.9559C46.3712 20.5287 45.4637 23.0558 45.3647 23.9361H45.4327L45.5977 25.8609C45.639 26.3453 45.6431 26.777 45.6534 27.2171C45.839 28.6197 46.0865 30.0601 46.334 30.5656L45.7442 30.7656C45.2492 36.6243 47.7242 37.3319 47.7242 37.3319C48.6152 42.7863 49.5041 40.4656 49.5041 41.8807C49.5041 43.2959 48.6172 42.7863 48.6172 42.7863C48.6172 42.7863 48.5058 43.0874 48.279 43.5023C58.1171 47.5036 60.5034 48.725 61.2315 49.4684C62.6133 50.8752 62.8278 54.3458 62.768 57.0392H63.758V45.8673L63.6549 45.8209C61.6749 45.0144 60.8829 42.7884 60.8829 42.7884C60.8829 42.7884 59.9898 43.2938 59.9898 41.8829C59.9898 40.4719 60.8829 42.7884 61.7718 37.334C61.7718 37.334 63.4301 36.8497 63.758 33.4591V30.873C63.758 30.8351 63.758 30.8035 63.7518 30.7677H63.1537C63.1537 30.7677 63.5992 28.8935 63.758 26.8465V24.3699Z" fill="#236767"/>
</svg>
