<svg width="82" height="82" viewBox="0 0 82 82" fill="none" xmlns="http://www.w3.org/2000/svg">
<path d="M57.0409 10.929H45.6413C43.5814 10.9355 43.6585 14.0056 45.6413 13.9876H57.0409V15.5571H45.6413C43.5929 15.539 43.6684 18.6075 45.6413 18.6157H57.0409V20.2196H45.6413C43.5929 20.2196 43.6684 23.2864 45.6413 23.2782H57.0409V24.8067H45.6413C43.6356 24.8214 43.6684 27.8915 45.6413 27.9013H57.0409V29.4331H45.6413C43.6356 29.4265 43.6274 32.4917 45.6413 32.4917H57.0409V34.0202H45.6413C43.6356 34.0267 43.6274 37.0952 45.6413 37.0804H57.0409V38.6466H45.6413C43.6356 38.6286 43.6274 41.6937 45.6413 41.7052H57.0409V43.2304H45.6413C43.6356 43.2288 43.6684 46.3005 45.6413 46.2907H57.0409V76.0714C57.0475 80.6093 63.9404 80.5273 63.9601 76.0714V6.37962C63.9404 4.30666 62.2381 1.68593 59.437 1.67773H45.6413C43.5814 1.67937 43.6585 4.74946 45.6413 4.73634L57.0409 4.77406V6.29926H45.6413C43.5847 6.28942 43.6618 9.35786 45.6413 9.3595H57.0409V10.929ZM44.8574 63.7272C44.8508 58.43 39.3601 52.7326 32.8001 56.4226V36.162L28.5574 2.74701C28.4688 1.86305 27.7194 1.65477 27.2159 1.64001C26.696 1.65477 25.6546 1.86305 25.5414 2.74701L21.3201 36.162V56.4226C14.7601 52.7326 9.44646 58.466 9.44482 63.6862C9.44646 68.3306 13.0217 72.1453 17.8597 72.1338C22.7338 72.1453 26.2401 67.8698 26.2401 63.6862V42.64H27.8801V63.6862C27.8801 68.37 31.5078 71.837 35.5389 72.0567C35.4716 74.625 36.3097 78.2887 37.8874 79.7418C39.7373 81.4474 41.9398 79.2662 41.0362 77.49C40.1637 75.8369 39.3076 74.8578 40.003 71.2482C42.909 69.9034 44.8508 67.0728 44.8574 63.7272ZM18.0466 67.8944C16.9408 67.8944 15.8802 67.4551 15.0982 66.6731C14.3162 65.8912 13.8769 64.8306 13.8769 63.7247C13.8769 62.6188 14.3162 61.5582 15.0982 60.7763C15.8802 59.9943 16.9408 59.555 18.0466 59.555C20.3197 59.5681 22.1712 61.4328 22.1876 63.7272C22.183 64.8264 21.746 65.8797 20.9712 66.6594C20.1963 67.4392 19.1458 67.8828 18.0466 67.8944ZM32.1031 63.7272C32.1069 62.6269 32.5436 61.5724 33.3189 60.7916C34.0941 60.0109 35.1455 59.5666 36.2457 59.555C37.3463 59.5649 38.3985 60.0087 39.1739 60.7898C39.9492 61.571 40.385 62.6265 40.3867 63.7272C40.385 64.8273 39.949 65.8823 39.1736 66.6627C38.3981 67.4431 37.3459 67.8858 36.2457 67.8944C35.1458 67.8845 34.0942 67.4415 33.3187 66.6614C32.5433 65.8813 32.1065 64.8271 32.1031 63.7272Z" fill="#174848"/>
</svg>

