<svg width="122" height="19" viewBox="0 0 122 19" fill="none" xmlns="http://www.w3.org/2000/svg">
<path d="M10.3729 0.231874L13.0631 5.71603L19.0769 6.59566C19.1532 6.60704 19.2248 6.63957 19.2837 6.68957C19.3426 6.73957 19.3864 6.80506 19.4102 6.87868C19.4339 6.95229 19.4368 7.0311 19.4183 7.10622C19.3998 7.18135 19.3608 7.24981 19.3056 7.30389L14.9548 11.5718L15.9821 17.5993C15.9953 17.6755 15.987 17.7539 15.9581 17.8256C15.9291 17.8973 15.8808 17.9594 15.8184 18.005C15.7561 18.0505 15.6823 18.0776 15.6053 18.0832C15.5284 18.0888 15.4514 18.0727 15.3832 18.0367L10.004 15.1914L4.62478 18.0375C4.55658 18.0736 4.47963 18.0899 4.40268 18.0844C4.32573 18.0788 4.25186 18.0518 4.18948 18.0063C4.1271 17.9608 4.0787 17.8986 4.04978 17.8269C4.02087 17.7552 4.0126 17.6768 4.02591 17.6006L5.05314 11.5718L0.701157 7.30389C0.645976 7.24981 0.60695 7.18135 0.588473 7.10622C0.569995 7.0311 0.572802 6.95229 0.596576 6.87868C0.620349 6.80506 0.664146 6.73957 0.723034 6.68957C0.781922 6.63957 0.853561 6.60704 0.929885 6.59566L6.94363 5.71603L9.63507 0.231874C9.66864 0.162379 9.72104 0.103769 9.78629 0.0627598C9.85154 0.0217505 9.92698 0 10.004 0C10.081 0 10.1564 0.0217505 10.2217 0.0627598C10.2869 0.103769 10.3393 0.162379 10.3729 0.231874Z" fill="#00B67A"/>
<path d="M35.8258 0.231874L38.516 5.71603L44.5297 6.59566C44.6061 6.60704 44.6777 6.63957 44.7366 6.68957C44.7955 6.73957 44.8393 6.80506 44.8631 6.87868C44.8868 6.95229 44.8896 7.0311 44.8712 7.10622C44.8527 7.18135 44.8137 7.24981 44.7585 7.30389L40.4077 11.5718L41.4349 17.5993C41.4482 17.6755 41.4399 17.7539 41.4109 17.8256C41.382 17.8973 41.3336 17.9594 41.2713 18.005C41.209 18.0505 41.1351 18.0776 41.0582 18.0832C40.9813 18.0888 40.9043 18.0727 40.8361 18.0367L35.4569 15.1914L30.0777 18.0375C30.0095 18.0736 29.9325 18.0899 29.8556 18.0844C29.7786 18.0788 29.7047 18.0518 29.6424 18.0063C29.58 17.9608 29.5316 17.8986 29.5027 17.8269C29.4738 17.7552 29.4655 17.6768 29.4788 17.6006L30.506 11.5718L26.154 7.30389C26.0989 7.24981 26.0598 7.18135 26.0414 7.10622C26.0229 7.0311 26.0257 6.95229 26.0495 6.87868C26.0732 6.80506 26.117 6.73957 26.1759 6.68957C26.2348 6.63957 26.3064 6.60704 26.3828 6.59566L32.3965 5.71603L35.088 0.231874C35.1215 0.162379 35.1739 0.103769 35.2392 0.0627598C35.3044 0.0217505 35.3799 0 35.4569 0C35.5339 0 35.6093 0.0217505 35.6746 0.0627598C35.7398 0.103769 35.7922 0.162379 35.8258 0.231874Z" fill="#00B67A"/>
<path d="M61.2785 0.231874L63.9688 5.71603L69.9825 6.59566C70.0588 6.60704 70.1305 6.63957 70.1894 6.68957C70.2482 6.73957 70.292 6.80506 70.3158 6.87868C70.3396 6.95229 70.3424 7.0311 70.3239 7.10622C70.3054 7.18135 70.2664 7.24981 70.2112 7.30389L65.8605 11.5718L66.8877 17.5993C66.9009 17.6755 66.8926 17.7539 66.8637 17.8256C66.8348 17.8973 66.7864 17.9594 66.7241 18.005C66.6617 18.0505 66.5879 18.0776 66.511 18.0832C66.434 18.0888 66.3571 18.0727 66.2888 18.0367L60.9096 15.1914L55.5304 18.0375C55.4622 18.0736 55.3853 18.0899 55.3083 18.0844C55.2314 18.0788 55.1575 18.0518 55.0951 18.0063C55.0327 17.9608 54.9843 17.8986 54.9554 17.8269C54.9265 17.7552 54.9182 17.6768 54.9315 17.6006L55.9588 11.5718L51.6068 7.30389C51.5516 7.24981 51.5126 7.18135 51.4941 7.10622C51.4756 7.0311 51.4784 6.95229 51.5022 6.87868C51.526 6.80506 51.5698 6.73957 51.6287 6.68957C51.6876 6.63957 51.7592 6.60704 51.8355 6.59566L57.8493 5.71603L60.5407 0.231874C60.5743 0.162379 60.6267 0.103769 60.6919 0.0627598C60.7572 0.0217505 60.8326 0 60.9096 0C60.9866 0 61.0621 0.0217505 61.1273 0.0627598C61.1926 0.103769 61.245 0.162379 61.2785 0.231874Z" fill="#00B67A"/>
<path d="M86.7313 0.231874L89.4215 5.71603L95.4353 6.59566C95.5116 6.60704 95.5832 6.63957 95.6421 6.68957C95.701 6.73957 95.7448 6.80506 95.7686 6.87868C95.7923 6.95229 95.7952 7.0311 95.7767 7.10622C95.7582 7.18135 95.7192 7.24981 95.664 7.30389L91.3132 11.5718L92.3405 17.5993C92.3537 17.6755 92.3454 17.7539 92.3165 17.8256C92.2875 17.8973 92.2392 17.9594 92.1768 18.005C92.1145 18.0505 92.0406 18.0776 91.9637 18.0832C91.8868 18.0888 91.8098 18.0727 91.7416 18.0367L86.3624 15.1914L80.9832 18.0375C80.915 18.0736 80.838 18.0899 80.7611 18.0844C80.6841 18.0788 80.6103 18.0518 80.5479 18.0063C80.4855 17.9608 80.4371 17.8986 80.4082 17.8269C80.3793 17.7552 80.371 17.6768 80.3843 17.6006L81.4115 11.5718L77.0596 7.30389C77.0044 7.24981 76.9653 7.18135 76.9469 7.10622C76.9284 7.0311 76.9312 6.95229 76.955 6.87868C76.9787 6.80506 77.0225 6.73957 77.0814 6.68957C77.1403 6.63957 77.212 6.60704 77.2883 6.59566L83.302 5.71603L85.9935 0.231874C86.027 0.162379 86.0794 0.103769 86.1447 0.0627598C86.2099 0.0217505 86.2854 0 86.3624 0C86.4394 0 86.5148 0.0217505 86.5801 0.0627598C86.6453 0.103769 86.6977 0.162379 86.7313 0.231874Z" fill="#00B67A"/>
<path d="M112.184 0.231874L114.874 5.71603L120.888 6.59566C120.964 6.60704 121.036 6.63957 121.095 6.68957C121.154 6.73957 121.198 6.80506 121.221 6.87868C121.245 6.95229 121.248 7.0311 121.229 7.10622C121.211 7.18135 121.172 7.24981 121.117 7.30389L116.766 11.5718L117.793 17.5993C117.806 17.6755 117.798 17.7539 117.769 17.8256C117.74 17.8973 117.692 17.9594 117.63 18.005C117.567 18.0505 117.493 18.0776 117.416 18.0832C117.34 18.0888 117.263 18.0727 117.194 18.0367L111.815 15.1914L106.436 18.0375C106.368 18.0736 106.291 18.0899 106.214 18.0844C106.137 18.0788 106.063 18.0518 106.001 18.0063C105.938 17.9608 105.89 17.8986 105.861 17.8269C105.832 17.7552 105.824 17.6768 105.837 17.6006L106.864 11.5718L102.512 7.30389C102.457 7.24981 102.418 7.18135 102.4 7.10622C102.381 7.0311 102.384 6.95229 102.408 6.87868C102.432 6.80506 102.475 6.73957 102.534 6.68957C102.593 6.63957 102.665 6.60704 102.741 6.59566L108.755 5.71603L111.446 0.231874C111.48 0.162379 111.532 0.103769 111.597 0.0627598C111.663 0.0217505 111.738 0 111.815 0C111.892 0 111.968 0.0217505 112.033 0.0627598C112.098 0.103769 112.15 0.162379 112.184 0.231874Z" fill="#00B67A"/>
</svg>
