<svg width="50" height="52" viewBox="0 0 50 52" fill="none" xmlns="http://www.w3.org/2000/svg">
<path fill-rule="evenodd" clip-rule="evenodd" d="M4.16675 10.636C4.16675 8.9435 4.82523 7.32031 5.99733 6.12353C7.16943 4.92674 8.75914 4.25439 10.4167 4.25439H23.2751C24.9318 4.25532 26.5204 4.92786 27.6917 6.12421L44.3584 23.1418C45.5301 24.3386 46.1883 25.9615 46.1883 27.6536C46.1883 29.3458 45.5301 30.9687 44.3584 32.1654L31.5042 45.2945C30.9239 45.8872 30.2348 46.3574 29.4765 46.6782C28.7181 46.999 27.9053 47.1641 27.0845 47.1641C26.2636 47.1641 25.4508 46.999 24.6924 46.6782C23.9341 46.3574 23.245 45.8872 22.6647 45.2945L5.998 28.2769C4.82581 27.0804 4.1671 25.4575 4.16675 23.7651V10.636ZM14.5834 12.7632C14.0309 12.7632 13.501 12.9873 13.1103 13.3863C12.7196 13.7852 12.5001 14.3262 12.5001 14.8904C12.5001 15.4546 12.7196 15.9956 13.1103 16.3946C13.501 16.7935 14.0309 17.0176 14.5834 17.0176C15.1359 17.0176 15.6679 16.7935 16.0586 16.3946C16.4493 15.9956 16.6688 15.4546 16.6688 14.8904C16.6688 14.3262 16.4493 13.7852 16.0586 13.3863C15.6679 12.9873 15.1359 12.7632 14.5834 12.7632Z" fill="#236767"/>
</svg>
