<svg width="82" height="82" viewBox="0 0 82 82" fill="none" xmlns="http://www.w3.org/2000/svg">
<path d="M58.0834 27.3333H68.3334L78.5834 41.1913V61.5H71.6305C71.2191 64.3464 69.796 66.9493 67.6217 68.8319C65.4475 70.7145 62.6678 71.7507 59.7917 71.7507C56.9157 71.7507 54.136 70.7145 51.9618 68.8319C49.7875 66.9493 48.3644 64.3464 47.953 61.5H30.6305C30.2243 64.3505 28.8033 66.9587 26.6285 68.8456C24.4537 70.7325 21.671 71.7714 18.7917 71.7714C15.9125 71.7714 13.1298 70.7325 10.955 68.8456C8.78018 66.9587 7.35917 64.3505 6.953 61.5H3.41675V20.5C3.41675 19.5938 3.77672 18.7248 4.41747 18.084C5.05822 17.4433 5.92726 17.0833 6.83341 17.0833H54.6667C55.5729 17.0833 56.4419 17.4433 57.0827 18.084C57.7234 18.7248 58.0834 19.5938 58.0834 20.5V27.3333ZM58.0834 34.1666V44.4166H71.7501V43.4429L64.8894 34.1666H58.0834Z" fill="#174848"/>
</svg>
